<svg version="1.1" xmlns="http://www.w3.org/2000/svg" width="270" height="40" viewBox="0, 0, 270, 40">
  <path d="
  M  05 05
  h  30
  v  05
  h -25
  v  25
  h -05
  z

  M  40 05
  h  30
  v  30
  h -30
  z

  M  45 10
  v  20
  h  20
  v -20
  z

  M  75 05
  h  05
  v  25
  h  07.5
  v -10
  h  05
  v  10
  h  07.5
  v -25
  h  05
  v  30
  h -30
  z

  M  110 05
  h  30
  v  30
  h -30
  v -15
  h  25
  v -10
  h -25
  z

  M  115 25
  v  05
  h  20
  v -05
  z

  M 145 05
  h  30
  v  30
  h -05
  v -25
  h -20
  v  25
  h -05
  z

  M  180 20
  h  05
  v  05
  h -05
  z

  M  190 5
  h  30
  v  05
  h -25
  v  10
  h  20
  v  05
  h -20
  v  10
  h -05
  z

  M  225 5
  h  05
  v  15
  h  20
  v -15
  h  05
  v  30
  h -30
  v -05
  h  25
  v -05
  h -25
  z

  M  260 5
  h  05
  v  30
  h -05
  z
  " />
</svg>