<svg version="1.1" xmlns="http://www.w3.org/2000/svg" width="516" height="270" viewBox="0, 0, 516, 270">
  <rect width="516" height="270" fill="hsl(206, 65%, 15%)"/>
  <path fill="hsl(214, 19%, 68%)" d="
  M  128 120
  h  30
  v  05
  h -25
  v  25
  h -05
  z

  M  163 120
  h  30
  v  30
  h -30
  z

  M  168 125
  v  20
  h  20
  v -20
  z

  M  198 120
  h  05
  v  25
  h  07.5
  v -10
  h  05
  v  10
  h  07.5
  v -25
  h  05
  v  30
  h -30
  z

  M  233 120
  h  30
  v  30
  h -30
  v -15
  h  25
  v -10
  h -25
  z

  M  238 140
  v  05
  h  20
  v -05
  z

  M 268 120
  h  30
  v  30
  h -05
  v -25
  h -20
  v  25
  h -05
  z

  M  303 135
  h  05
  v  05
  h -05
  z

  M  313 120
  h  30
  v  05
  h -25
  v  10
  h  20
  v  05
  h -20
  v  10
  h -05
  z

  M  348 120
  h  05
  v  15
  h  20
  v -15
  h  05
  v  30
  h -30
  v -05
  h  25
  v -05
  h -25
  z

  M  383 120
  h  05
  v  30
  h -05
  z
  " />
</svg>