<svg version="1.1" xmlns="http://www.w3.org/2000/svg" width="270" height="142" viewBox="0, 0, 270, 142">
  <rect width="270" height="142" fill="hsl(206, 65%, 15%)"/>
  <path fill="hsl(214, 19%, 68%)" d="
  M  05 55
  h  30
  v  05
  h -25
  v  25
  h -05
  z

  M  40 55
  h  30
  v  30
  h -30
  z

  M  45 60
  v  20
  h  20
  v -20
  z

  M  75 55
  h  05
  v  25
  h  07.5
  v -10
  h  05
  v  10
  h  07.5
  v -25
  h  05
  v  30
  h -30
  z

  M  110 55
  h  30
  v  30
  h -30
  v -15
  h  25
  v -10
  h -25
  z

  M  115 75
  v  05
  h  20
  v -05
  z

  M 145 55
  h  30
  v  30
  h -05
  v -25
  h -20
  v  25
  h -05
  z

  M  180 70
  h  05
  v  05
  h -05
  z

  M  190 55
  h  30
  v  05
  h -25
  v  10
  h  20
  v  05
  h -20
  v  10
  h -05
  z

  M  225 55
  h  05
  v  15
  h  20
  v -15
  h  05
  v  30
  h -30
  v -05
  h  25
  v -05
  h -25
  z

  M  260 55
  h  05
  v  30
  h -05
  z
  " />
</svg>