<svg version="1" xmlns="http://www.w3.org/2000/svg" width="1668" height="1668" viewBox="0 0 1251.000000 1251.000000"><path d="M602 2.1c-10.7.3-22.2 1-25.5 1.4-3.3.4-6.7.7-7.5.7-3.9 0-23.7 2.2-33.5 3.8-3.8.6-8.6 1.2-10.5 1.4-1.9.3-6.8 1.1-10.8 2-4 .9-9.1 1.8-11.4 2.1-2.3.3-4.7 1-5.3 1.5-.7.5-1.4.8-1.7.5-.3-.3-6.3.9-13.4 2.6-7.1 1.7-13.8 3.2-14.9 3.5-5 1-47.7 14.6-52.5 16.6-1.4.6-2.9 1.2-3.5 1.4-1.9.4-15.4 5.5-19.2 7.1-2.1.9-4.2 1.8-4.8 1.9-.5.1-3.9 1.5-7.5 3.2-3.6 1.6-7.6 3.3-9 3.7-1.4.4-10.1 4.6-19.5 9.3-9.3 4.7-17.2 8.6-17.5 8.7-.3 0-1.6.8-3 1.6-4.1 2.7-23.2 12.9-24 12.9-.5 0-1 .7-1.4 1.5-.3.8-1 1.5-1.5 1.5-3.8 0-61.1 39.6-61.1 42.2 0 .4-.3.7-.7.6-1.1-.4-14.3 10.2-14.3 11.3 0 .5-.6.9-1.2.9-1.6.1-8.8 6.6-8.8 8 0 .6-.4.9-.8.7-1-.2-10.3 7.7-17.2 14.8-2.7 2.7-6.9 6.6-9.4 8.5-2.5 1.9-4.5 4-4.6 4.7 0 .6-.4 1.3-.8 1.5-.5.1-3.2 2.9-6 6.1-2.9 3.1-5.2 5.5-5.2 5.2 0-.3-3.1 2.9-7 7.1-3.9 4.1-7 7.9-7 8.5 0 .5-.7.9-1.5.9s-1.5.4-1.5.8c0 .5-1.2 2.2-2.7 3.9-6.5 7.3-8.2 9.3-16 19.3-4.6 5.8-8.6 10.9-9.1 11.5-.4.5-2.1 2.8-3.7 5s-3.4 4.4-4 5c-1.8 1.6-9.5 13.3-9.5 14.4 0 .6-.4 1.1-.8 1.1s-2.4 2.5-4.3 5.5c-1.8 3-3.7 5.5-4.1 5.5-.5 0-.8.7-.8 1.6 0 .9-.8 2.4-1.8 3.3-.9.9-3 4.1-4.6 7.1-1.7 3-3.8 6.3-4.7 7.4-1 1-2.3 3.1-2.9 4.7-.7 1.6-1.6 2.9-2.1 2.9s-.9.7-.9 1.5-.5 1.5-1.1 1.5c-.5 0-.8.4-.5.9.6.9-5.1 12.2-6.8 13.3-.7.5-.7.8-.1.8s.5.4-.1.8-3.2 5.1-5.8 10.4c-2.6 5.4-5.1 9.8-5.7 9.8-.6 0-.7.4-.4 1 .3.5.1 1-.5 1s-.8.5-.5 1c.4.6-.7 3.5-2.4 6.5-1.7 3.1-4.4 8.8-6.1 12.8-1.6 3.9-4.5 11-6.5 15.7-2 4.7-3.8 9.2-4 10-.2.8-1.7 5-3.4 9.3-3.7 9.2-11.1 31.6-11.1 33.4 0 .7-.4 1.3-.8 1.3s-.8.8-.9 1.7c-.1 1-.9 4.3-1.8 7.3s-1.7 5.9-1.8 6.5c-.2.5-.6 1.5-.9 2.1-.4.6-1 3-1.3 5.4-.3 2.4-1 4.9-1.5 5.5-.5.7-.8 1.4-.5 1.7.3.3-.1 2.2-.9 4.4-1.2 3.5-4.3 17.5-5.1 22.9-.1 1.1-.5 2.7-.8 3.5-1.7 5.1-6.2 33.9-5.3 34.7.3.4.2 1.1-.4 1.8-.5.6-1.4 6.2-2 12.5-.6 6.3-1.5 12.6-1.9 14-.4 1.4-.5 3.5-.1 4.5.4 1.1.3 3.5-.2 5.3-.5 1.8-1 13.2-1.1 25.3-.1 12-.5 21.9-.8 21.9-.4 0-.5 2.1-.2 4.7.2 2.7.4 5.5.4 6.3-.2 12.9 0 27.1.4 29.5.2 1.6.7 6.5 1 10.9.3 4.3.8 8.2 1.1 8.7.3.5.1.9-.5.9-.7 0-.7.8-.2 2.2.5 1.3 1.5 7.5 2.1 13.8.7 6.3 1.7 12.1 2.3 12.7.6.9.6 1.3-.1 1.3s-.7 1.1-.1 3.3c.5 1.8 1 5.7 1.1 8.5.2 2.9.6 5.2 1.1 5.2.4 0 .7 1 .7 2.3 0 1.3.9 6.5 2 11.6s2 9.8 1.9 10.4c-.1.7.1 1.9.4 2.7.4.8 2.5 8.9 4.7 18s5.2 20.3 6.6 25c1.4 4.7 3.7 12.3 5.1 17 1.5 4.7 3.2 9.8 3.9 11.5.7 1.6 2.9 7.5 4.9 13 2 5.5 4.1 11.1 4.7 12.5.6 1.4 1.2 2.7 1.2 3 .7 4.5 24.1 54.1 33 69.8 2 3.4 3.3 6.2 3.1 6.2-.3 0-.1.6.5 1.3.6.6 5.3 8.2 10.5 16.7s9.8 15.9 10.3 16.5c.4.5 2.3 3.2 4.2 6 1.9 2.7 3.7 5.1 4.2 5.3.4.2.8.9.8 1.6 0 .7 1.1 2.6 2.5 4.2s2.5 3.2 2.5 3.6c0 .3.9 1.7 1.9 3 6 7.2 11.1 13.9 11.1 14.7 0 .5.4 1.1.8 1.3.4.1 2.3 2.3 4.2 4.8 1.9 2.4 5 6 6.7 8 1.8 1.9 3.3 3.7 3.3 4 0 .7 9.7 11.6 16.1 18.2 2.5 2.7 4.4 4.8 4.2 4.8-1.1 0 33.4 34 35 34.6.9.3 1.5 1 1.2 1.5-.4.5-.3.9.2.9.4 0 2.9 1.9 5.4 4.3 2.5 2.3 6.3 5.6 8.5 7.4 2.1 1.7 5.7 4.7 7.9 6.7s4.3 3.6 4.7 3.6c.4 0 1 .9 1.3 2 .3 1.1 1.1 2 1.7 2 .9 0 27.5 19.5 28.8 21.1.8 1 33 22.3 38.5 25.4 2.8 1.5 6.4 3.9 8.1 5.2 1.7 1.2 3.5 2.3 3.9 2.3.5 0 2.9 1.3 5.4 2.9 7.7 4.7 41 22.1 43.6 22.7.6.1 2.8 1 5 2s4.2 1.8 4.5 1.9c.3.1 4 1.8 8.3 3.8 4.3 2 8.2 3.7 8.5 3.7.4 0 3 1.2 5.7 2.5 2.8 1.4 5.7 2.5 6.5 2.5.8 0 2.4.7 3.4 1.5s2.2 1.2 2.6 1c.4-.3 2.5.4 4.8 1.5 7.3 3.5 50.3 16.9 65.7 20.5.6.1 1.7.5 2.5.8.8.3 8.9 2 18 3.7 9.1 1.7 19.2 3.7 22.5 4.4 3.3.8 6.7 1.5 7.5 1.5.8.1 3.5.3 6 .6s6.1.7 8 .9c1.9.2 4.6.7 6 1 1.4.4 9.7 1.3 18.5 2.2 15.3 1.4 16.9 1.5 19.8 1.3.6 0 3.2.3 5.7.6 6.6 1 74 1.1 74 .2 0-.4 1.5-.7 3.3-.6 3.9.1 16.3-.8 27.4-2.2 4.5-.5 8.5-.9 9-.8.4.1 1.5 0 2.3-.3.8-.4 5.6-1.1 10.5-1.8 9.6-1.2 36-5.8 38.5-6.7.8-.3 2.4-.7 3.5-.8 1.1-.2 7.4-1.7 14-3.4 6.6-1.6 13.1-3.2 14.5-3.5 2.3-.4 7.2-1.9 11-3.3.8-.3 2-.7 2.6-.8 1.8-.4 18.8-5.6 20.4-6.2.8-.3 2-.7 2.5-.8 2.1-.5 11.1-3.7 14-5 2.4-1.1 12.1-4.5 14.5-5 .9-.3 5.5-2.3 10.2-4.5 2.6-1.2 5.3-2.3 6-2.4.7-.1 2.9-1 4.8-1.9 30.7-14.3 44.5-20.9 45-21.5.3-.4 3.2-2 6.5-3.7 8.1-4 40.5-23.6 48.2-29.1 3.4-2.4 6.6-4.4 7.1-4.4.6 0 1.2-.4 1.4-.8.2-.5 3.7-3.3 7.8-6.2 4.1-2.9 7.7-5.7 7.8-6.2.2-.4.8-.8 1.3-.8 1.5 0 31.7-24 30.2-24-.4-.1.2-.6 1.4-1.3 1.1-.7 4.4-3.3 7.3-6 2.8-2.6 5.3-4.7 5.6-4.7 1 0 39.4-38.6 39.4-39.7 0-.6.9-1.5 2-1.8 1.1-.3 2-1.3 2-2.1s.4-1.4.9-1.4 5.3-5.3 10.8-11.8c11.8-13.8 13.7-16 16.1-18.7.9-1.1 3-3.8 4.5-6.1 1.5-2.2 4.8-6.3 7.2-9 2.4-2.7 4.4-5.3 4.5-5.7 0-.9 11.4-17.4 15-21.7 1.1-1.4 2.6-3.7 3.2-5.3.7-1.5 1.6-2.7 2-2.7.5 0 .8-.4.8-.9 0-1.2 6.3-11.5 7.3-11.9.4-.2.7-1 .7-1.7 0-.8.6-2 1.4-2.8.8-.8 2.8-3.9 4.4-6.8 1.6-3 5.7-10.4 9.1-16.6 3.3-6.2 6.1-11.7 6.1-12.3 0-.5.5-1 1.2-1 .6 0 .9-.2.6-.5-.3-.3 2.3-6.2 5.8-13.2 3.5-6.9 6.4-13 6.4-13.5 0-.6 1.8-4.9 4.1-9.6 2.3-4.8 5-11.1 6.1-14.2 1.1-3 3.7-9.8 5.8-15 2.1-5.3 4.8-12.7 6-16.5 1.2-3.9 3.4-10.6 4.9-15 1.4-4.4 2.6-8.5 2.6-9 0-.6.3-1.5.7-2 .8-1.2 4.9-17.1 5.2-20 .1-1.2.6-2.7 1.1-3.5.5-.8 1-2.1 1.1-3 .8-5.3 4-18.6 4.7-18.8.4-.2.5-.7.2-1.2s.6-6.2 1.9-12.7c2.3-11.2 4.3-23.9 5.2-32.8.2-2.1.6-4.7.9-5.6.7-2 3.6-30.5 3.5-33.4-.2-3.6-.2-4 .5-6.5.6-2.7.7-70.6 0-77.8-.2-2.4-.6-4.6-.9-4.9-.2-.3-.1-1.6.4-2.8.5-1.3.5-2.5.1-2.7-.5-.2-1.1-4.1-1.4-8.8-.7-12-5.7-46.2-6.8-47.6-.7-.8-.6-1.4.1-1.9.6-.4.7-1.3.2-2.3-1-1.9-3-11.7-3.7-17.7-.2-2.2-.9-4.1-1.5-4.3-.5-.2-.8-.8-.5-1.2.3-.5-1-7.1-2.9-14.7s-3.7-14.9-4-16.3c-2.1-10-18.2-57.2-24-70.4-.8-1.7-3.3-7.6-5.6-13.1-2.4-5.5-5.6-12.6-7.2-15.8-1.6-3.2-2.6-6.2-2.3-6.7.4-.6.2-1-.2-1-.7 0-5.3-7.9-5.8-10-.3-1.1-5-10.5-5.5-11-.4-.3-3.8-6.4-7.8-13.5-12.7-23-31.5-52-42.9-66.2-1.8-2.3-3.3-4.6-3.3-5.2 0-.6-.4-1.1-.8-1.1-.5 0-3-3-5.7-6.7-5.2-7-10.2-13.2-16.1-19.5-1.9-2.1-3.4-4.2-3.4-4.8 0-.5-.6-1-1.3-1-.7 0-2-1.2-2.9-2.8-1.7-2.7-29.8-31.7-35.3-36.3-1.6-1.4-4.1-3.8-5.5-5.4-3.8-4.4-25.7-23.5-27-23.5-.6 0-.9-.4-.6-.8.3-.5-.4-1.5-1.6-2.3-3-2.1-12.1-9.2-13.6-10.6-.8-.7-2.3-1.8-3.4-2.4-1.2-.6-3.5-2.4-5.2-4-1.7-1.5-3.5-2.9-4-3.1-.5-.2-2.5-1.8-4.4-3.6-2-1.7-4.2-3.2-4.9-3.2-.7 0-1.3-.5-1.3-1 0-.6-.5-1-1.1-1-.6 0-2.9-1.4-5-3.1-2.1-1.7-3.9-2.7-3.9-2.3 0 .4-.8-.3-1.9-1.4-1-1.2-2.2-2.2-2.7-2.2-1 0-8.8-5.2-9.2-6.3-.2-.4-.9-.7-1.6-.7-.7 0-2.2-.9-3.4-2-1.2-1.2-2.2-1.8-2.2-1.5 0 .5-5-2.4-6-3.5s-6.7-4.6-12.5-7.6c-3.3-1.7-8.7-4.5-12-6.4-9.7-5.3-31.6-16.4-36.5-18.5-2.5-1-7.9-3.4-12-5.3s-10.3-4.5-13.8-5.8c-3.4-1.3-7.7-3-9.5-3.8-6.4-2.8-17.4-6.9-24.7-9.1-4.1-1.3-12.2-4-18-6-5.7-2-11.9-3.7-13.7-3.8-1.8-.1-3.3-.5-3.3-1 0-.4-.9-.7-2-.7s-2-.5-2-1.1c0-.5-.4-.7-1-.4-.5.3-4.2-.4-8.1-1.5-8.9-2.7-21.7-5.4-39.4-8.6-1.1-.2-4.9-.9-8.5-1.7-3.6-.8-8.5-1.5-10.9-1.6-2.5-.1-4.8-.4-5.2-.6-1.5-1-20.5-3.5-26.2-3.5-2.7 0-5.6-.4-6.6-.9-.9-.5-2.3-.6-3-.1-.8.4-2.6.4-4.2 0-1.6-.5-11.8-1.1-22.6-1.5-10.9-.3-22.5-.7-25.8-.9-3.3-.1-14.8.1-25.5.5zm31 208.4c13.5.3 26.2.9 28.3 1.4 2.2.5 3.9.5 4.3 0 .3-.5 1-.7 1.5-.3.5.3 6 1.2 12.2 2 6.2.8 12.3 1.7 13.7 2 1.4.3 4.9.7 7.8 1.1 2.8.3 5.2 1 5.2 1.5s.3.7.8.4c1.5-.9 35.4 7.6 37.8 9.5.6.5 1.3.6 1.7.3.6-.7 29.6 9.6 37.3 13.2 2.8 1.3 5.4 2.4 5.8 2.4.5 0 2.2.6 3.9 1.4 1.8.8 5.9 2.6 9.2 4.1 3.3 1.5 6.7 3.3 7.5 4 .8.8 1.8 1.4 2.3 1.4 1.4 0 22.7 11.4 22.7 12.1 0 .5 1.2 1.1 2.6 1.4 1.4.4 3.8 1.8 5.2 3.1 1.5 1.4 3.3 2.5 4 2.5.7 0 2.3.9 3.5 2 1.2 1.2 3.2 2.3 4.4 2.6 1.3.4 2.3 1.2 2.3 2s.5 1.4 1.1 1.4c.6 0 4.2 2.3 8 5 3.8 2.8 6.9 4.7 6.9 4.3 0-.4.7.3 1.6 1.5.8 1.2 2.2 2.2 3 2.2.8 0 1.2.4.9 1-.3.5-.2 1 .3 1 .6 0 6.2 4.3 12.7 9.5 6.4 5.2 11.4 9.5 11 9.5-.3 0 2.5 2.6 6.3 5.7 3.8 3.2 6.8 6 6.6 6.2-.2.3.8 1.3 2.3 2.3 1.6 1 2.5 1.8 2.2 1.8-.4 0 1.5 2.1 4.2 4.7 2.7 2.7 4.9 5.4 4.9 6.2 0 .8.2 1.2.5.9 1.1-1.1 21.5 22 21.5 24.3 0 .5.6.9 1.3.9.7 0 1.7.9 2.2 1.9.9 1.7 15 21.9 17.2 24.6 2.2 2.8 11.3 18.4 11.3 19.5 0 .8.3 1 .6.7.4-.3 1.9 1.7 3.4 4.6 1.5 2.9 5 9.5 7.7 14.8 7.3 13.9 16.5 34.8 15.8 35.8-.3.5-.2 1.1.3 1.3 1.3.5 8.8 21.3 12.8 35.3 2 7.1 3.9 13.7 4.2 14.5.3.8.6 2.1.8 2.9.1.7 1.2 5 2.3 9.5 1 4.4 2.5 11 3.1 14.6.7 3.6 1.4 7.2 1.7 8 .3.8.7 3.1.8 5 .2 1.9.8 8 1.5 13.5.6 5.5.9 10.7.7 11.7-.3 1-.1 2.1.4 2.4.5.3.9 1.7.9 3.2 0 4.3 0 6.1.1 7.4.6 6.1.8 40.5.3 41.7-.4.9-.6 2-.5 2.6.8 2.8.3 10.4-2 30.5-1.5 13.9-1.9 16.1-2.9 17.9-.5 1-.7 2.1-.5 2.3.8.7-2.5 17.1-3.6 18.5-.7.7-.6 1.4.1 1.8.7.4.8 1.1.2 1.8-.5.7-1.3 3-1.6 5.1-1.4 7.4-9.5 34.1-14.4 47.1-5.3 14-7.5 18.9-15.7 36-9.1 18.9-11.6 23.9-12.3 24.5-1.1.8-4.7 8.3-4.4 9.2.1.4-.5.8-1.3.8s-1.5.7-1.5 1.5c0 .9-.4 2.1-1 2.8-.9 1.2-14.6 21.4-16.5 24.4-3.3 5.4-17.3 22.2-17.9 21.6-.3-.4-.6.1-.6 1s-.4 1.7-1 1.7c-.5 0-1 .4-1 1 0 .5-2.6 3.8-5.7 7.2-3.2 3.4-7.4 7.9-9.3 10-9.7 10.6-26.6 26.5-39.2 36.7-4.3 3.5-7.8 6.8-7.8 7.2 0 .5-.6.9-1.3.9-1 0-8.4 4.9-13.3 8.9-3.3 2.7-13.3 9.1-14.2 9.1-.6 0-1.2.3-1.4.7-1.2 2.7-41.6 25.3-45.2 25.3-.8 0-1.8.5-2.1 1-.6 1-4.6 2.9-17.5 8.2-5.2 2.2-10.4 4.3-11 4.4-.3 0-1.8.6-3.5 1.3-1.6.7-3.4 1.4-4 1.5-.5.2-2.2.8-3.6 1.4-2.6 1-24.4 7.9-27.7 8.7-11.7 2.9-31.6 7.4-34.7 7.9-2.2.3-5.1.8-6.5 1-10.4 1.9-15.5 2.6-22.2 3.2-4.3.4-7.8 1.1-7.8 1.5 0 .5-1.1.4-2.5-.1s-2.7-.5-3 0c-.7 1.1-59.2 1.3-59.9.1-.3-.4-1.6-.6-2.8-.4-3.3.6-41.3-3.9-45.8-5.5-.8-.2-2.8-.6-4.5-.8-1.6-.2-4.6-.8-6.5-1.3-1.9-.6-6-1.5-9-2.2-3-.6-6.8-1.5-8.5-2-1.6-.5-9.3-2.7-17-5-7.7-2.2-14.4-4.4-15-4.8-.5-.4-3-1.3-5.4-2-2.4-.7-11.8-4.4-20.7-8.2-9-3.8-16.6-6.9-17-6.9-.3 0-1.9-.9-3.5-2.1-1.6-1.1-2.9-1.7-2.9-1.3 0 .4-.8 0-1.7-.8-1-.8-5.6-3.4-10.3-5.8-12.4-6.3-42.9-25.5-46-29-1.3-1.3-7-5-8-5-.5 0-1-.4-1-.9s-3-3.2-6.8-6c-5.7-4.4-16.2-13.4-20.8-17.9-.8-.7-1.4-1.1-1.4-.9 0 .5-3.3-2.8-21.7-21.9-6.2-6.4-11.3-11.9-11.3-12.1 0-.4-7.3-9.4-9.8-12.2-5.9-6.2-26.2-35-26.2-37 0-.5-.4-1.1-.8-1.3-3.5-1.4-34.7-63-35.6-70.3-.1-.6-.9-2.6-1.7-4.5-1.5-3.3-4.2-10.9-4.4-12 0-.3-.3-1-.7-1.5-.3-.6-1.1-3-1.7-5.5-.7-2.5-1.6-5.4-2.1-6.5-.5-1.1-1.6-4.7-2.6-8-1.4-5.1-2.4-9-5.9-24-1.1-4.7-3.7-18.3-4.1-22-.3-2.2-.9-5.8-1.4-8-.5-2.2-1-5.9-1-8.3 0-2.3-.5-4.2-1-4.2-.7 0-.8-.6-.2-1.6.5-1 .5-3.5-.1-6.3-1.1-5.3-1.5-60.2-.5-70.6.4-3.9 1-9.5 1.2-12.5 1-10.2 2.9-22 3.7-22 .4 0 .4-1.4-.1-3-.5-1.8-.5-3 .1-3 .5 0 .9-.9.9-2 0-3.8 6.1-29.5 10.1-42.5 2.2-7.2 4.2-13.8 4.4-14.7.2-.9.9-2.6 1.5-3.7.6-1.2.8-2.1.4-2.1s.1-.9 1.1-2 1.5-2 1.2-2c-.3 0 0-1.8.8-4s1.1-4 .8-4c-.4 0 .3-1 1.5-2.3 1.2-1.3 2-2.6 1.7-2.8-.6-.7 7.6-19.2 15-33.9 8.1-15.9 20.4-36.5 29.1-48.8 4.1-5.6 7.2-10.2 6.9-10.2-.3 0 1.1-1.7 3-3.7s3.5-4 3.5-4.4c0-.4 1.2-2 2.8-3.6 1.5-1.5 5.4-6.2 8.7-10.3 3.2-4.1 6.3-7.7 6.8-7.9.5-.2 2.1-1.7 3.5-3.4 1.5-1.7 3.5-3.9 4.5-4.9.9-1 1.7-2.1 1.7-2.6.1-.4 1.9-2.1 4-3.7 2.1-1.7 3.9-3.6 4-4.3 0-.6.3-1.2.8-1.2.4 0 4.1-3.2 8.2-7s7.6-7 7.8-7c.1 0 1.7-1.3 3.5-2.9 10.5-9.7 27.7-23.1 29.6-23.1.5 0 1.1-.4 1.3-.8.8-2.2 30-20.6 43.8-27.7 4.1-2.1 8.3-4.6 9.4-5.4 1-.9 2-1.5 2.2-1.3.3.2 4.3-1.5 9-3.7 4.7-2.3 8.9-4.1 9.4-4.1s4.2-1.5 8.2-3.3c4-1.9 9.6-4.2 12.3-5.1 2.8-1 5.7-2 6.5-2.3.8-.4 1.8-.7 2.3-.8.4-.2.9-.4 1.2-.5.3-.1.8-.3 1.3-.5.4-.1 1.4-.4 2.2-.8 7.7-3 43.4-12.5 53-14.1 1.9-.3 4.6-.8 6-1 1.4-.2 3.6-.7 5-1 1.4-.4 4.5-.9 7-1.2 2.5-.2 8.1-.9 12.5-1.5 11.7-1.4 15.3-1.7 22.8-2 3.7-.1 6.7-.6 6.7-1 0-.5.6-.7 1.3-.4.6.2 12.2.6 25.7 1z"/><path d="M618.5 479.5c-.5.2-2.3.6-3.9 1-3.4.7-12.6 9.5-12.6 12 0 1-.7 2.7-1.7 3.7-.9 1-1.1 1.8-.6 1.8.7 0 .8 1.2.4 3.2-.4 1.8-.5 4.4-.1 5.8.4 1.4.4 3.4 0 4.5s-.4 3.2.1 4.7c.4 1.5.4 3-.1 3.3-.5.3-.5 1.8-.2 3.3.9 3.5.7 7.5-.4 9.3-.5.8-.9 6.3-1 12.4-.5 26.8-1.6 63-2 63.7-.3.5-1.3.8-2.3.8-1.4 0-1.8-.8-1.9-3.8-.1-3.6-.5-9.1-1.6-18.2-.3-2.5-.8-8.8-1.2-14-.3-5.2-.8-10.9-1-12.5-.2-1.7-.6-7.7-.9-13.5-.3-5.8-1.1-13.2-1.6-16.5-.6-3.3-1.2-7.6-1.4-9.6-.9-9.2-6.9-19.9-11.1-19.9-.7 0-1.4-.5-1.6-1.1-.2-.5-2.7-1.3-5.5-1.6-4.4-.4-5.9-.1-10.2 2.3-2.8 1.5-5.1 3.3-5.1 4.1 0 .8-.4 1.2-.9.9-.5-.3-1.4.8-2 2.4-.5 1.7-.8 3-.5 3 .3 0-.1.7-1 1.5-1.2 1.3-1.5 4.4-1.5 16.3.1 8.1.5 19.4 1.1 25.2.6 5.8 1.1 11.8 1.2 13.5 0 1.6.5 3.3 1.1 3.7.6.5.6.8-.2.8s-.9.9-.4 2.7c.4 1.6.5 3.9.1 5.3-.3 1.3-.3 4.6 0 7.2.4 2.7.3 4.8-.2 4.8s-.4.8.1 1.8c1.2 2.2 1.7 12.4.7 14-1.5 2.4-3.2 1.1-4.9-3.6-.9-2.6-1.7-6.2-1.7-8 0-1.7-.5-3.2-1-3.2-.6 0-1-.6-.8-1.3.1-.6-.2-3.5-.7-6.2-.5-2.8-1-5.7-1.1-6.5-.2-1.3-3.3-15.1-4.5-20-.2-.8-.7-1.7-1.1-2-.4-.3-.8-1.7-1-3.2-.2-1.4-1-3.3-1.7-4.2-.7-.9-1-1.6-.7-1.6 1 0-3.7-4.3-6.4-5.9-2.9-1.7-9-3.2-9-2.2 0 .3-1.6.6-3.6.5-2.2-.1-4.4.6-5.4 1.6-.9.9-2.5 2.3-3.6 3.1-1.1.8-3.1 3.2-4.4 5.4-2.2 3.5-2.4 5-2.3 13.6.1 5.3.6 10.5 1.1 11.6.6 1.1.7 2.5.2 3.3-.5.8-.5 1.9 0 2.5.5.6 1.7 7.2 2.5 14.6 2.2 19 2.4 20.8 2.8 26.5.2 2.8.6 5.5.9 6 .3.5.6 3.6.7 6.9.2 3.3.7 8.2 1.3 11 .5 2.7 1.2 8.8 1.4 13.4.3 4.7 1.1 10.2 1.9 12.3.7 2.1.9 3.8.4 3.8s-.5 1-.1 2.2c.5 1.3.5 3.6.2 5.3-.3 1.6-.2 4.1.3 5.5.9 2.5 1.2 5.5 2.2 19.2 1.1 16.4 6.7 33 14.2 42.3 4.8 6 7.1 8.3 7.7 7.8.3-.4.6 0 .6.8 0 1.4 13.2 10.6 18.5 12.9 1.7.7 3.7 1.5 4.5 1.9.8.4 4.9 1.7 9 3 4.1 1.2 8.7 2.6 10.1 3 1.5.5 3.4.4 4.3-.1 1-.6 1.6-.5 1.6.1 0 1.3 44.8 1.3 45.6 0 .3-.5 2.3-.9 4.4-.9 2.1 0 4.1-.4 4.5-1 .3-.5 1.2-.7 2-.4.8.3 2 .2 2.7-.2.7-.5 2.1-1 3.2-1.1 2-.4 7.5-2.6 11.9-4.9 1.5-.9 2.7-1.3 2.7-1 0 .9 9.3-5 12.1-7.6 2.6-2.4 3.3-2.8 4.9-2.8.6 0 1-.5 1-1.2 0-.6 1.5-2.6 3.3-4.3 5.2-5 11.6-14.4 13.7-20 .6-1.7 1.7-4.4 2.4-6 .8-1.7 1.8-4.1 2.4-5.5.5-1.4 1.5-3.8 2.1-5.3.6-1.5 1.1-3.7 1.1-4.7 0-1.1.3-2 .8-2 .4 0 2.3-3 4.2-6.7 1.9-3.7 4-7.3 4.7-8.1.7-.7 2-2.6 3-4.2.9-1.7 2.1-3 2.5-3 .4 0 .8-.6.8-1.4 0-.8.6-2.1 1.3-2.8.7-.7 3.4-4.1 6.1-7.6 2.7-3.4 5.4-6.2 5.9-6.2.6 0 .8-.3.5-.6-.6-.5 4.9-6.1 11.6-11.7 1.5-1.4 5-3.5 7.6-4.7 2.6-1.2 5.3-3.3 5.9-4.6.6-1.3 1.4-2.4 1.9-2.4 1 0 .9.2 1.4-9.5.3-5.2-.1-7.9-1.4-10.5-.9-1.9-1.7-3.1-1.8-2.5 0 .5-.7 0-1.5-1.2s-3.1-2.7-5-3.3c-1.9-.6-3.5-1.5-3.5-2s-4.8-.8-10.7-.7c-9.2.2-11.5.6-15.8 2.6-2.7 1.4-5.5 3.2-6.1 4-2.8 3.8-5.2 6-5.8 5.4-.3-.3-.6 0-.6.8s-1.1 2.6-2.5 4.1c-1.4 1.5-2.5 3-2.5 3.3 0 .3-1.3 1.9-3 3.5-1.6 1.6-3 3.2-3 3.6 0 .3-1.8 2.5-4.1 4.7-3.3 3.3-4.4 3.9-5.7 3-1-.6-1.6-2-1.4-3.4.1-1.3.5-5.6.7-9.4.5-7 1.4-17.8 1.9-22.6.2-1.4.5-3 .8-3.5.3-.5.6-5 .7-9.9.1-5 .6-11.9 1.1-15.5.5-3.6 1.1-11.2 1.4-17 .3-5.8.8-12.5 1.1-15 2.2-18.9 2.9-33.8 1.9-40.5-1.4-9-8.1-16.6-15.1-17.2-2-.1-3.7-.4-4-.6-.2-.3-2.5 0-5 .4-5 1-10 5.2-13.7 11.8-1.5 2.7-3.5 13.4-3.9 20.8 0 .7-.4 1.3-.8 1.3s-.3 1.6.1 3.4c.4 1.9.6 3.6.4 3.8-.1.2-.5 1.5-.7 2.8-.3 1.4-.8 3.2-1.1 4-.2.8-.7 4.8-1 8.8-.3 4.1-1 8-1.6 8.7-.8.9-.8 1.5 0 2 .7.4.7 1.2 0 2.5-.5 1-1 4.4-1 7.5 0 3.1-.4 7.5-1 9.8-.5 2.3-1.2 7.7-1.5 11.9-.4 4.3-1 7.8-1.5 7.8s-.9-6.9-.9-15.3c-.1-8.3-.3-21.1-.5-28.2-.2-7.2-.5-21.4-.7-31.7-.1-13.2-.5-18.5-1.3-18.1-.7.5-.7.2 0-.8.9-1 1.2-11.4.4-11.4-.1 0-.4-1.3-.6-3-1-5.7-9-15.3-13.2-15.7-.9-.1-2.4-.2-3.2-.3-.8 0-2-.3-2.5-.7-.6-.3-1.4-.4-2-.3z"/></svg>