<svg version="1" xmlns="http://www.w3.org/2000/svg" width="1289.333" height="1289.333" viewBox="0 0 967.000000 967.000000"><path d="M87.4 6.3c-25.4 6.5-44.5 22-55.5 45.1-5.3 11.2-7 18.3-7.6 31.6-1.1 24.4 6.7 45 23.2 61.6 14.9 14.8 33.3 23 54.6 24.1 55.5 3 98.2-49.3 84-102.7-6.1-22.7-22.2-42.7-42.6-52.9-12-5.9-21-8.2-35-8.7-10.2-.3-13.3-.1-21.1 1.9zm36.1 33.6c21.4 7.9 35.4 31.5 31.7 53.3-5.6 32.9-40.4 51.9-69.6 38-16.7-8-27.4-23.7-28.4-41.7C56 66.1 68.9 46.9 91 39.2c8.7-3 23.4-2.7 32.5.7zM284.5 4.6c-24.9 4.1-48.3 20-60 40.9-8.2 14.6-11 27.3-10.2 45.6.8 18.8 6.5 34 18.1 47.9 35.2 42.3 101.8 39.1 132-6.4 16.6-25 18.8-54.4 6.1-81.1C360.1 29.7 341 13.6 318 7c-7.4-2.1-26.7-3.5-33.5-2.4zm24.6 34c8.9 2.6 16.6 7.3 22.8 14 7 7.4 10.6 14.3 12.7 24.4 4.4 21.2-7.1 44.2-26.7 53.5-12 5.6-21.3 6.7-32.8 3.9-11.7-2.9-21.4-9.1-28-17.9-8.1-10.8-10.6-19.1-9.9-33.6.5-9.2.8-10.6 4.6-18.3 8.6-17.3 24.7-27.4 43.8-27.5 4.6-.1 10.4.6 13.5 1.5zM93.5 205.7c-5.9.8-17.1 4.6-24 8-9.4 4.8-13.9 7.9-21.2 15.1C32.4 244.5 24 264.9 24 287.7c.1 22.3 8.6 42.9 24.1 58.2 8.1 8 12.9 11.3 23.5 16.2 22.7 10.7 49 10.3 71.8-1.1 20.9-10.4 36.5-29.6 42.7-52.5 3.1-11.2 3.1-30.6 0-41.9-8.5-31.5-34.6-55.2-66.6-60.6-5.1-.9-20.6-1-26-.3zm26.6 33.9c16.7 4.9 29.9 18.7 34.3 36 2 7.7 2 14.1.1 22.3-4.5 19-18.8 32.9-38.9 37.8-23.3 5.7-50.7-11.6-57.2-36.1-1.8-6.5-1.8-18.6 0-25.1 4.3-16.3 18.4-30.5 34.6-35.1 6.5-1.8 20.6-1.7 27.1.2zM283.5 205.7c-13.9 2.1-31.2 10.4-43.1 20.5-5.2 4.5-14.4 16.9-18.4 25.1-6.4 13-7.5 18.7-7.5 37.2.1 14.8.3 16.6 2.8 24 7.9 22.5 21.5 38.3 42.2 48.6 48.8 24.3 106.5-4.1 117.4-57.8 2.6-12.6 2.6-18.5.2-31.2-4.1-20.9-15.7-39.1-33.1-51.8-7.2-5.3-12.1-7.7-23.3-11.5-8-2.6-10.9-3.1-21.7-3.3-6.9-.2-13.8-.1-15.5.2zm24.5 33.4c17.3 4 32.7 20 36.5 38 1.8 8.3 1.3 15.2-1.5 24.9-6.9 23.5-33 39.1-56.3 33.6-16.1-3.8-27.8-12.9-35-27.4l-4.2-8.5v-25.4l4.3-8.5c6.5-13.2 17.6-22.6 31.2-26.4 5.5-1.6 18.9-1.7 25-.3zM472.5 205.6c-4.9.8-18.5 5.4-23.9 8.1-2.8 1.4-8 4.7-11.6 7.3-17.8 13.2-28.6 30.8-32.5 52.8-2 11.7-1.9 18.4.6 29.9 7.3 33.5 31.9 57.9 64.8 64.3 12.7 2.5 20.1 2.5 31.8 0 17.6-3.7 31.8-11.5 43.5-23.7 31-32.7 30.3-83.5-1.5-115.3-7.3-7.3-11.7-10.5-21.2-15.3-12-6-19.4-7.8-34-8.2-7.1-.2-14.3-.1-16 .1zM92 402.9c-25.2 4.3-48.1 21.5-59.4 44.6-7 14.3-8.1 19.5-8.1 37.5.1 14.9.2 15.9 3.4 25.1 9.2 26.9 30.3 46.6 57.6 54.1 11.2 3.1 30.6 3 41.9 0 9.2-2.6 21.7-8.7 29.4-14.5 13.1-9.8 25-28.1 29.4-44.7 9.7-37.2-8.5-77.3-42.7-94.3-12-6-19.5-7.8-34-8.2-7.1-.2-15 0-17.5.4zm24.3 32.7c20.3 4.5 35.5 20.6 38.9 41.1 3.1 18.6-6.9 39.9-23.3 49.5-9 5.3-16.3 7-28 6.6-9.8-.3-11.1-.6-18.2-4.1-10-4.9-17.8-12.2-22.7-21-4.7-8.6-6.4-17.1-5.7-28.4.4-7.4 1-9.7 4.6-16.8 6.9-13.9 19.4-23.7 34.3-27 8.4-1.8 11.6-1.8 20.1.1zM281 402.9c-25 4.7-47.8 22.3-59 45.5-2.2 4.5-4.7 10.8-5.6 14.1-2.2 8.2-3 28-1.4 36.9 5 28.3 25.6 52.5 53.2 62.5 20.5 7.5 43 6.4 63-3.2 33.4-15.8 52.4-51.7 46.3-87.2-5.5-32-27.2-56.8-58-66.4-7.8-2.5-30.2-3.7-38.5-2.2zm24.2 32.6c21.4 4.5 36.7 20.5 39.8 41.6 1 7.1 1 9.5-.4 15.9-3.6 17.1-13.9 29.7-30.3 36.9-5.2 2.4-7 2.6-18.4 2.6h-12.6l-8.5-4.2c-6.5-3.2-10-5.8-14.4-10.6-10.3-11-14-21.5-13.2-37.5.5-8.4.9-10.1 4.6-17.5 4.6-9.1 7.4-12.6 14.5-18 5.9-4.5 12.4-7.5 20.2-9.2 7.8-1.8 10.6-1.8 18.7 0zM472.5 402.6c-11.5 1.9-27.2 8.6-36.3 15.7-16.5 12.7-27 29.5-31.3 50.2-5.3 25.4 2 51.8 19.8 71.5 18.6 20.7 49.3 30.8 76.3 25.2 18.5-3.8 29.3-9.6 42.5-22.7 17.8-17.6 25.5-37.2 24.2-62.1-1.1-22.1-8.4-39-23.6-54.2-10-10-20.9-16.6-35.6-21.3-6-2-28.9-3.4-36-2.3zm22.5 32.8c18.8 4 33.8 18 38.4 36.1 6 22.8-5 46.3-26.7 57-7.1 3.5-8.6 3.9-18 4.3-7.9.3-11.8 0-16.3-1.3-25.4-7.3-41.2-34-34.8-58.9 4.7-18.2 18.2-31.8 36.3-36.7 8.2-2.1 12.8-2.3 21.1-.5zM660.4 403c-21.4 4.3-40.1 16.4-52.3 34-21.2 30.6-19.7 70.6 3.7 99.3 13.5 16.6 32.9 27.1 55.1 29.8 8.5 1.1 11.3 1 20.2-.4 22.5-3.7 40.1-13.9 53.3-30.8 42.2-53.9 3.3-133.5-64.8-132.8-6.1.1-12.9.5-15.2.9zM282 602.6c-26.1 5.2-47.9 21.6-59.5 44.9-6.7 13.5-8 19.4-8 36.5 0 16.4 1.3 22.7 7.1 34.9 10.3 21.9 27.5 36.8 51.4 44.3 6.5 2 9.5 2.3 23 2.3 17.8 0 23.7-1.3 36.4-7.6 9.9-5 15.5-9.1 23.2-17.1 7.9-8.3 12-14.4 16.1-24.2 4.4-10.4 6.3-20.2 6.3-32.9-.1-22-6.9-39.8-21.4-55.4-10.3-11.2-21.3-18.2-36-22.9-6.9-2.3-10.2-2.7-22.1-3-7.7-.1-15.1 0-16.5.2zM468.1 603.5c-33.4 7.6-57.7 33.5-63.7 67.9-7.4 42.2 21.8 84.5 64.4 93.3 10.8 2.2 31.1 1.4 40.7-1.7 28.8-9.2 50.3-32.3 56.6-61 2.5-11.2 2.2-28.3-.6-39-6.9-26.6-29.1-49.6-56-58-9.2-2.9-31.8-3.7-41.4-1.5zM660 603c-33.8 6.5-59.7 33.4-65.9 68.4-3.7 20.6 2.7 45.3 16.4 63.2 11.6 15.1 29 26.1 47.9 30.1 11.1 2.3 31.7 1.3 42.1-2.1 41.4-13.5 65.4-56.2 55-97.9-5-20.1-16.8-37.3-33.1-48.4-15.1-10.2-25-13.4-43.9-13.8-7.7-.2-16 0-18.5.5z"/></svg>